<svg width="44" height="41" viewBox="0 0 44 41" fill="none" xmlns="http://www.w3.org/2000/svg">
<path fill-rule="evenodd" clip-rule="evenodd" d="M41.998 32.641H2.003C0.898998 32.641 0.00299835 31.745 0.00299835 30.641C0.00299835 29.536 0.898998 28.641 2.003 28.641H41.998C43.102 28.641 43.998 29.536 43.998 30.641C43.998 31.744 43.103 32.641 41.998 32.641ZM41.998 24.641H2.003C0.898998 24.641 0.00299835 23.746 0.00299835 22.641C0.00299835 21.537 0.898998 20.641 2.003 20.641H41.998C43.102 20.641 43.998 21.537 43.998 22.641C43.998 23.746 43.103 24.641 41.998 24.641ZM31.999 12.643C30.398 12.643 28.916 13.123 27.666 13.934C26.434 8.61699 21.692 4.643 16.001 4.643C9.375 4.643 4.003 10.016 4.003 16.643H0.00299835C0.00299835 7.808 7.166 0.643997 16.001 0.643997C22.005 0.643997 27.23 3.956 29.966 8.848C30.63 8.735 31.303 8.643 31.999 8.643C37.221 8.643 41.651 11.985 43.3 16.643H38.919C37.535 14.253 34.958 12.643 31.999 12.643ZM2.003 36.639H41.998C43.102 36.639 43.998 37.535 43.998 38.639C43.998 39.744 43.102 40.639 41.998 40.639H2.003C0.898998 40.639 0.00299835 39.744 0.00299835 38.639C0.00299835 37.535 0.897998 36.639 2.003 36.639Z" fill="white"/>
</svg>
