<svg width="55" height="49" viewBox="0 0 55 49" fill="none" xmlns="http://www.w3.org/2000/svg">
<path fill-rule="evenodd" clip-rule="evenodd" d="M52.941 26.641H48.941C47.837 26.641 46.941 25.746 46.941 24.641C46.941 23.537 47.837 22.643 48.941 22.643H52.941C54.045 22.643 54.941 23.538 54.941 24.641C54.941 25.746 54.045 26.641 52.941 26.641ZM45.084 13.329C44.303 14.11 43.037 14.11 42.256 13.329C41.475 12.549 41.475 11.282 42.256 10.502L45.084 7.674C45.865 6.893 47.131 6.893 47.912 7.674C48.693 8.454 48.693 9.721 47.912 10.502L45.084 13.329ZM42.137 28.936C43.886 31.022 44.943 33.706 44.943 36.641C44.943 43.266 39.571 48.639 32.944 48.639C30.169 48.639 20.143 48.639 16.946 48.639C8.111 48.639 0.947998 41.477 0.947998 32.641C0.947998 23.805 8.111 16.643 16.946 16.643C18.518 16.643 20.036 16.875 21.469 17.297C23.664 14.47 27.087 12.643 30.944 12.643C37.571 12.643 42.943 18.016 42.943 24.641C42.942 26.156 42.649 27.602 42.137 28.936ZM4.947 32.641C4.947 39.268 10.318 44.639 16.945 44.639C20.561 44.639 29.924 44.639 32.943 44.639C37.361 44.639 40.942 41.057 40.942 36.641C40.942 32.223 37.361 28.641 32.943 28.641C31.343 28.641 29.86 29.123 28.61 29.932C27.379 24.616 22.636 20.643 16.945 20.643C10.318 20.643 4.947 26.014 4.947 32.641ZM30.943 16.643C28.731 16.643 26.728 17.541 25.281 18.992C27.621 20.428 29.566 22.445 30.91 24.846C31.574 24.733 32.247 24.641 32.943 24.641C35.068 24.641 37.062 25.2 38.793 26.168C38.889 25.674 38.943 25.164 38.943 24.641C38.943 20.225 35.361 16.643 30.943 16.643ZM30.943 8.643C29.839 8.643 28.944 7.748 28.944 6.644V2.645C28.944 1.54 29.84 0.645004 30.943 0.645004C32.048 0.645004 32.943 1.54 32.943 2.645V6.644C32.943 7.749 32.049 8.643 30.943 8.643ZM16.803 13.329L13.976 10.502C13.195 9.721 13.195 8.454 13.976 7.674C14.756 6.893 16.023 6.893 16.803 7.674L19.631 10.502C20.412 11.282 20.412 12.549 19.631 13.329C18.851 14.11 17.584 14.11 16.803 13.329Z" fill="white"/>
</svg>
