<svg width="46" height="40" viewBox="0 0 46 40" fill="none" xmlns="http://www.w3.org/2000/svg">
<path fill-rule="evenodd" clip-rule="evenodd" d="M42.763 20.758C44.131 22.707 44.942 25.076 44.942 27.641C44.942 34.266 39.571 39.639 32.944 39.639C30.169 39.639 20.143 39.639 16.946 39.639C8.11 39.639 0.948 32.477 0.948 23.641C0.948 14.805 8.11 7.643 16.946 7.643C18.948 7.643 20.86 8.018 22.626 8.69C24.261 4.008 28.704 0.642998 33.944 0.642998C34.699 0.642998 35.435 0.720998 36.151 0.854998C36.02 1.43 35.944 2.028 35.944 2.643C35.944 7.061 39.525 10.642 43.942 10.642C44.558 10.642 45.155 10.566 45.731 10.434C45.864 11.151 45.942 11.887 45.942 12.642C45.941 15.775 44.73 18.621 42.763 20.758ZM4.947 23.641C4.947 30.268 10.318 35.639 16.945 35.639C20.561 35.639 29.924 35.639 32.943 35.639C37.361 35.639 40.942 32.057 40.942 27.641C40.942 23.223 37.361 19.641 32.943 19.641C31.343 19.641 29.86 20.123 28.609 20.932C27.378 15.616 22.636 11.642 16.945 11.642C10.318 11.642 4.947 17.014 4.947 23.641ZM24.496 9.545C24.497 9.545 24.498 9.545 24.498 9.545C24.498 9.545 24.497 9.545 24.496 9.545ZM32.155 4.85C29.255 5.514 26.98 7.76 26.23 10.625C28.148 11.997 29.753 13.777 30.91 15.845C31.574 15.732 32.247 15.64 32.943 15.64C35.561 15.64 37.976 16.49 39.948 17.911C40.806 16.932 41.433 15.743 41.734 14.429C36.881 13.525 33.059 9.706 32.155 4.85Z" fill="white"/>
</svg>
