<svg width="44" height="39" viewBox="0 0 44 39" fill="none" xmlns="http://www.w3.org/2000/svg">
<path fill-rule="evenodd" clip-rule="evenodd" d="M33.998 32.461V28.379C37.446 27.488 39.998 24.367 39.998 20.641C39.998 16.224 36.416 12.642 31.999 12.642C30.398 12.642 28.915 13.122 27.665 13.933C26.434 8.616 21.692 4.642 16.001 4.642C9.37401 4.642 4.002 10.015 4.002 16.642C4.002 21.08 6.41901 24.947 10.001 27.021V31.466C4.14101 29.091 0.00300598 23.353 0.00300598 16.641C0.00300598 7.806 7.165 0.641998 16.001 0.641998C22.005 0.641998 27.23 3.954 29.966 8.846C30.63 8.733 31.302 8.641 31.999 8.641C38.625 8.641 43.997 14.014 43.997 20.639C43.997 26.586 39.671 31.506 33.998 32.461ZM15.072 26.641C15.625 25.684 16.847 25.358 17.804 25.909L20 27.176V24.641C20 23.537 20.896 22.641 22 22.641C23.104 22.641 24 23.537 24 24.641V27.176L26.195 25.908C27.152 25.357 28.375 25.683 28.926 26.64C29.479 27.597 29.151 28.82 28.195 29.372L25.999 30.64L28.195 31.908C29.151 32.461 29.479 33.683 28.926 34.64C28.374 35.595 27.152 35.923 26.195 35.37L24 34.104V36.639C24 37.744 23.104 38.639 22 38.639C20.896 38.639 20 37.744 20 36.639V34.104L17.805 35.372C16.848 35.925 15.625 35.597 15.073 34.642C14.521 33.685 14.848 32.462 15.805 31.91L18 30.641L15.805 29.373C14.848 28.82 14.521 27.598 15.072 26.641ZM22 32.641C23.104 32.641 24 31.745 24 30.641C24 29.536 23.104 28.641 22 28.641C20.896 28.641 20 29.536 20 30.641C20 31.744 20.896 32.641 22 32.641Z" fill="white"/>
</svg>
