<svg width="45" height="33" viewBox="0 0 45 33" fill="none" xmlns="http://www.w3.org/2000/svg">
<path fill-rule="evenodd" clip-rule="evenodd" d="M16.945 32.639C8.10999 32.639 0.946991 25.477 0.946991 16.641C0.946991 7.805 8.10999 0.643005 16.945 0.643005C22.949 0.643005 28.174 3.955 30.91 8.846C31.574 8.733 32.248 8.641 32.943 8.641C39.57 8.641 44.942 14.014 44.942 20.641C44.942 27.266 39.57 32.639 32.943 32.639C30.168 32.639 20.143 32.639 16.945 32.639ZM32.943 28.639C37.361 28.639 40.943 25.057 40.943 20.641C40.943 16.223 37.361 12.641 32.943 12.641C31.343 12.641 29.861 13.122 28.61 13.932C27.379 8.616 22.636 4.642 16.945 4.642C10.319 4.642 4.94699 10.014 4.94699 16.641C4.94699 23.267 10.319 28.639 16.945 28.639C20.562 28.639 29.924 28.639 32.943 28.639Z" fill="white"/>
</svg>
