<svg width="45" height="45" viewBox="0 0 45 45" fill="none" xmlns="http://www.w3.org/2000/svg">
<path fill-rule="evenodd" clip-rule="evenodd" d="M36.943 31.941V27.56C39.332 26.177 40.943 23.599 40.943 20.64C40.943 16.223 37.361 12.641 32.943 12.641C31.343 12.641 29.861 13.121 28.61 13.932C27.379 8.615 22.636 4.642 16.945 4.642C10.319 4.642 4.947 10.014 4.947 16.64C4.947 20.19 6.498 23.368 8.947 25.565V30.481C4.17 27.713 0.946999 22.559 0.946999 16.64C0.946999 7.805 8.11 0.643005 16.945 0.643005C22.949 0.643005 28.174 3.954 30.91 8.846C31.574 8.733 32.248 8.641 32.943 8.641C39.57 8.641 44.942 14.013 44.942 20.64C44.942 25.863 41.601 30.293 36.943 31.941ZM14.946 20.641C16.05 20.641 16.945 21.537 16.945 22.641V38.639C16.945 39.744 16.05 40.639 14.946 40.639C13.842 40.639 12.946 39.744 12.946 38.639V22.641C12.946 21.537 13.842 20.641 14.946 20.641ZM22.945 24.641C24.049 24.641 24.945 25.536 24.945 26.641V42.639C24.945 43.743 24.049 44.639 22.945 44.639C21.841 44.639 20.945 43.743 20.945 42.639V26.641C20.945 25.535 21.841 24.641 22.945 24.641ZM30.944 20.641C32.048 20.641 32.943 21.537 32.943 22.641V38.639C32.943 39.744 32.048 40.639 30.944 40.639C29.84 40.639 28.944 39.744 28.944 38.639V22.641C28.944 21.537 29.84 20.641 30.944 20.641Z" fill="white"/>
</svg>
