<svg width="45" height="45" viewBox="0 0 45 45" fill="none" xmlns="http://www.w3.org/2000/svg">
<path fill-rule="evenodd" clip-rule="evenodd" d="M36.943 31.941V27.56C39.33 26.175 40.941 23.599 40.941 20.64C40.941 16.222 37.361 12.64 32.943 12.64C31.341 12.64 29.859 13.121 28.609 13.931C27.377 8.615 22.636 4.641 16.945 4.641C10.318 4.641 4.94701 10.013 4.94701 16.64C4.94701 20.189 6.49601 23.369 8.94501 25.566V30.48C4.16801 27.712 0.947006 22.558 0.947006 16.64C0.947006 7.804 8.109 0.641998 16.945 0.641998C22.949 0.641998 28.174 3.954 30.91 8.845C31.574 8.732 32.246 8.64 32.943 8.64C39.57 8.64 44.941 14.013 44.941 20.64C44.941 25.861 41.6 30.293 36.943 31.941ZM14.945 20.641C16.049 20.641 16.945 21.536 16.945 22.641V26.639C16.945 27.744 16.049 28.639 14.945 28.639C13.84 28.639 12.945 27.744 12.945 26.639V22.641C12.945 21.535 13.84 20.641 14.945 20.641ZM14.945 32.639C16.049 32.639 16.945 33.534 16.945 34.639V38.637C16.945 39.742 16.049 40.637 14.945 40.637C13.84 40.637 12.945 39.742 12.945 38.637V34.639C12.945 33.533 13.84 32.639 14.945 32.639ZM22.943 24.639C24.048 24.639 24.943 25.535 24.943 26.639V30.639C24.943 31.743 24.048 32.639 22.943 32.639C21.839 32.639 20.945 31.743 20.945 30.639V26.639C20.945 25.535 21.84 24.639 22.943 24.639ZM22.943 36.639C24.048 36.639 24.943 37.534 24.943 38.637V42.637C24.943 43.742 24.048 44.637 22.943 44.637C21.839 44.637 20.945 43.742 20.945 42.637V38.637C20.945 37.533 21.84 36.639 22.943 36.639ZM30.943 20.641C32.047 20.641 32.943 21.536 32.943 22.641V26.639C32.943 27.744 32.047 28.639 30.943 28.639C29.838 28.639 28.943 27.744 28.943 26.639V22.641C28.943 21.535 29.838 20.641 30.943 20.641ZM30.943 32.639C32.047 32.639 32.943 33.534 32.943 34.639V38.637C32.943 39.742 32.047 40.637 30.943 40.637C29.838 40.637 28.943 39.742 28.943 38.637V34.639C28.943 33.533 29.838 32.639 30.943 32.639Z" fill="white"/>
</svg>
