<svg width="24" height="24" viewBox="0 0 24 24" fill="none" xmlns="http://www.w3.org/2000/svg">
<path fill-rule="evenodd" clip-rule="evenodd" d="M12 23.998C5.37298 23.998 0.000976562 18.626 0.000976562 12C0.000976562 5.37301 5.37298 0.00100708 12 0.00100708C12.755 0.00100708 13.491 0.0790089 14.207 0.213009C14.075 0.789009 13.999 1.38601 13.999 2.00101C13.999 6.41901 17.581 10 21.999 10C22.614 10 23.211 9.92401 23.787 9.79201C23.92 10.509 23.998 11.244 23.998 12C23.998 18.626 18.626 23.998 12 23.998ZM10.212 4.20801C6.65598 5.02101 4.00098 8.19701 4.00098 12C4.00098 16.417 7.58198 19.999 12 19.999C15.802 19.999 18.978 17.344 19.791 13.788C14.937 12.884 11.115 9.06201 10.212 4.20801Z" fill="white"/>
</svg>
