<svg width="48" height="48" viewBox="0 0 48 48" fill="none" xmlns="http://www.w3.org/2000/svg">
<path fill-rule="evenodd" clip-rule="evenodd" d="M45.997 25.999H41.999C40.894 25.999 39.999 25.104 39.999 24C39.999 22.896 40.894 22 41.999 22H45.997C47.102 22 47.997 22.896 47.997 24C47.997 25.104 47.103 25.999 45.997 25.999ZM38.142 12.688C37.361 13.469 36.093 13.469 35.314 12.688C34.533 11.907 34.533 10.641 35.314 9.86L38.142 7.032C38.921 6.251 40.189 6.251 40.97 7.032C41.749 7.813 41.749 9.079 40.97 9.86L38.142 12.688ZM24.001 35.998C17.374 35.998 12.001 30.626 12.001 24C12.001 17.373 17.373 12.001 24.001 12.001C30.628 12.001 35.999 17.373 35.999 24C35.999 30.626 30.628 35.998 24.001 35.998ZM24.001 16.001C19.583 16.001 16.001 19.582 16.001 24C16.001 28.417 19.584 31.999 24.001 31.999C28.418 31.999 31.999 28.417 31.999 24C31.999 19.582 28.419 16.001 24.001 16.001ZM24.001 8.002C22.896 8.002 22.001 7.106 22.001 6.002V2.003C22.001 0.898998 22.896 0.00299835 24.001 0.00299835C25.105 0.00299835 26.001 0.898998 26.001 2.003V6.002C26.001 7.106 25.104 8.002 24.001 8.002ZM9.85999 12.688L7.03199 9.86C6.25099 9.079 6.25099 7.813 7.03199 7.032C7.81299 6.251 9.07899 6.251 9.85999 7.032L12.688 9.86C13.469 10.641 13.469 11.907 12.688 12.688C11.907 13.469 10.641 13.469 9.85999 12.688ZM8.00199 24C8.00199 25.104 7.10599 25.999 6.00199 25.999H2.00199C0.897991 25.999 0.00299072 25.104 0.00299072 24C0.00299072 22.896 0.898991 22 2.00199 22H6.00199C7.10699 22 8.00199 22.896 8.00199 24ZM9.85999 35.312C10.641 34.532 11.907 34.532 12.688 35.312C13.469 36.093 13.469 37.36 12.688 38.14L9.85999 40.968C9.07899 41.749 7.81299 41.749 7.03199 40.968C6.25099 40.188 6.25099 38.921 7.03199 38.14L9.85999 35.312ZM24.001 39.998C25.105 39.998 26.001 40.893 26.001 41.997V45.997C26.001 47.101 25.105 47.997 24.001 47.997C22.896 47.997 22.001 47.101 22.001 45.997V41.997C22.001 40.893 22.896 39.998 24.001 39.998ZM38.142 35.312L40.97 38.14C41.749 38.921 41.749 40.188 40.97 40.968C40.189 41.749 38.921 41.749 38.142 40.968L35.314 38.14C34.533 37.36 34.533 36.093 35.314 35.312C36.093 34.531 37.36 34.531 38.142 35.312Z" fill="white"/>
</svg>
