<svg width="44" height="28" viewBox="0 0 44 28" fill="none" xmlns="http://www.w3.org/2000/svg">
<path fill-rule="evenodd" clip-rule="evenodd" d="M37.999 16H34.999C33.894 16 32.999 15.105 32.999 14.001C32.999 12.897 33.894 12.001 34.999 12.001H37.999C39.103 12.001 39.999 11.105 39.999 10.002C39.999 8.897 39.103 8.002 37.999 8.002C36.894 8.002 35.999 7.106 35.999 6.002C35.999 4.898 36.894 4.002 37.999 4.002C38.136 4.002 38.27 4.016 38.401 4.043C41.522 4.254 43.997 6.826 43.997 10.002C43.997 13.314 41.312 16 37.999 16ZM27.999 12.001H25.999H19.001H6.00199C4.89799 12.001 4.00299 12.897 4.00299 14.001C4.00299 15.105 4.89799 16 6.00199 16H8.00199H12.001H15.001H19.001H22.001H25.999H27.999C31.313 16 33.999 18.687 33.999 22C33.999 25.176 31.524 27.748 28.403 27.959C28.272 27.986 28.138 28 27.999 28C26.895 28 25.999 27.104 25.999 26C25.999 24.895 26.895 24 27.999 24C29.104 24 29.999 23.104 29.999 22C29.999 20.896 29.104 20 27.999 20H25.999H22.001H19.001H15.001H12.001H8.00199H6.00199C2.68899 20 0.00299072 17.314 0.00299072 14.001C0.00299072 10.826 2.47799 8.254 5.59899 8.042C5.72999 8.016 5.86499 8.002 6.00199 8.002H19.001H25.999H27.999C29.104 8.002 29.999 7.106 29.999 6.002C29.999 4.898 29.104 4.002 27.999 4.002C26.895 4.002 25.999 3.107 25.999 2.002C25.999 0.897999 26.895 0.0019989 27.999 0.0019989C28.138 0.0019989 28.272 0.0169993 28.403 0.0429993C31.524 0.253999 33.999 2.826 33.999 6.002C33.999 9.314 31.313 12.001 27.999 12.001Z" fill="white"/>
</svg>
